<svg xmlns="http://www.w3.org/2000/svg" xmlns:xlink="http://www.w3.org/1999/xlink" width="240" height="204" viewBox="0 0 176.387 150" fill="none">
  <path d="M171.539 0.755H0.906V149.245H171.539V0.755Z" stroke="#111" stroke-miterlimit="10"/>
  <path d="M171.07 75.29L86.56 132.28L1.36 74.69L85.87 17.7L171.07 75.29Z" stroke="#111" stroke-linecap="round" stroke-linejoin="round"/>
  <path id="wave-a" d="M128.658 106.742C125.561 102.739 124.142 97.9207 122.45 93.2534C120.154 86.9399 118.13 80.5206 115.411 74.3883C114.475 72.2888 113.312 70.1591 111.348 68.6487C109.234 67.0325 108.101 67.0023 106.032 68.7091C103.449 70.8539 102.029 73.92 100.715 76.956C97.7696 83.7227 95.5342 90.8217 91.9243 97.2863C91.0331 98.8722 90.006 100.322 88.6769 101.531C87.242 102.83 85.5201 102.89 84.0701 101.531C82.7258 100.262 81.6383 98.8118 80.7623 97.0899C77.1524 89.9456 75.3247 82.1821 72.9685 74.5997C70.6877 67.2893 68.981 59.7674 65.5825 52.8497C64.9783 51.6111 64.3742 50.3273 63.4679 49.3304C60.6585 46.2642 59.1481 46.5965 56.7919 49.3002C54.3903 52.0491 53.0913 55.4174 51.6866 58.7554C48.9075 65.3106 46.8835 72.1831 43.8324 78.6175C42.8809 80.6263 41.8538 82.6201 40.3585 84.2966C37.9267 87.0154 35.5402 87.3779 32.7157 84.0701C30.4954 81.4571 29.0152 78.4362 27.6407 75.3096C24.6652 68.5581 22.7167 61.3382 18.9105 54.9492C18.0344 53.4689 17.0678 52.1247 15.8443 50.9767C14.4245 49.6476 12.9443 49.708 11.4641 50.9616C8.65472 53.333 7.38596 56.7314 5.95106 59.9638C4.42554 63.3924 3.5646 67.0929 2.1599 70.5669C1.46511 72.3039 1.02709 74.0711 0.770315 75.8534" stroke="#111" stroke-linecap="round" stroke-linejoin="round"/>
  <path d="M152.223 63.5597C148.492 72.6374 139.714 102.966 135.817 107.709C133.46 110.579 130.973 110.224 128.768 106.961" stroke="#111" stroke-linecap="round" stroke-linejoin="round"/>
  <path d="M152.235 63.2414C153.459 61.3986 154.305 59.3294 155.664 57.532C157.839 54.632 160.558 55.2512 162.189 57.3205C164.908 60.7643 166.237 64.8726 167.732 68.9206C168.034 69.7513 168.11 70.6877 168.88 71.2919C169.74 71.95 170.62 72.6 171.539 73.25" stroke="#111" stroke-linecap="round" stroke-linejoin="round"/>
  <circle r="4.4" fill="#111">
    <animateMotion dur="6s" repeatCount="indefinite" rotate="auto" keyPoints="1;0" keyTimes="0;1" calcMode="linear"><mpath xlink:href="#wave-a"/></animateMotion>
  </circle>
  <circle r="4.4" fill="#111">
    <animateMotion dur="6s" begin="-3s" repeatCount="indefinite" rotate="auto" keyPoints="1;0" keyTimes="0;1" calcMode="linear"><mpath xlink:href="#wave-a"/></animateMotion>
  </circle>
</svg>
