<svg class="p2-spin-rev" height="186" viewBox="0 0 150.749 150.75" fill="none" xmlns="http://www.w3.org/2000/svg"><style>.p2-glyph{color:var(--text);flex-shrink:0;display:flex;align-items:center;justify-content:center;margin-bottom:4px}.p2-glyph svg{display:block;width:auto;overflow:visible;transform-box:fill-box;transform-origin:center center}@keyframes p2-spin{to{transform:rotate(360deg)}}@keyframes p2-dash{to{stroke-dashoffset:-8}}.p2-spin{animation:p2-spin 60s linear infinite}.p2-spin-rev{animation:p2-spin 72s linear infinite reverse}.p2-march .dm{animation:p2-dash 1.6s linear infinite}.p2-mesh .dm{animation:p2-dash 1.6s linear infinite}@keyframes p2-node-fill{0%,10%{fill:#111}16%,100%{fill:#fff}}.p2-mesh .p2-node{animation:p2-node-fill 4.5s linear infinite}@keyframes p2-blink{0%,30%{fill:#111}48%,100%{fill:#fff}}.p2-mesh .p2-center{animation:p2-blink 1.5s linear infinite}.p2-diamond .dm{animation:p2-dash 1.6s linear infinite}.p2-discs .dm{animation:p2-dash 1.6s linear infinite}@keyframes p2-disc-bob{0%,100%{transform:translateY(0)}50%{transform:translateY(-3px)}}.p2-discs .p2-disc{animation:p2-disc-bob 3.6s ease-in-out infinite}.p2-spin-rev .dm{animation:p2-dash 1.6s linear infinite}@keyframes p2-ray{0%,100%{opacity:.22}50%{opacity:1}}.p2-burst g.p2-spin{transform-box:fill-box;transform-origin:center center}.p2-burst g.p2-spin path{animation:p2-ray 2.8s ease-in-out infinite}@keyframes p2-ring-glow{0%,100%{opacity:.4}50%{opacity:1}}@keyframes p2-flow{to{stroke-dashoffset:-1}}@keyframes p2-flow-r{to{stroke-dashoffset:1}}.p2-glyph svg.p2-march{overflow:hidden}@keyframes p2-log-step{0%,58%{transform:translateY(0)}88%,100%{transform:translateY(32px)}}@keyframes p2-log-out{0%,58%{opacity:1}82%,100%{opacity:0}}@keyframes p2-log-in{0%,64%{opacity:0}88%,100%{opacity:1}}.p2-log-stack{animation:p2-log-step 2.2s ease-in-out infinite;animation-delay:-1.25s}.p2-log-out{animation:p2-log-out 2.2s linear infinite;animation-delay:-1.25s}.p2-log-in{opacity:0;animation:p2-log-in 2.2s linear infinite;animation-delay:-1.25s}
.p2-title{font-size:44px;font-weight:400;font-family:var(--font-heading);color:var(--text);letter-spacing:-1.2px;line-height:110%;margin:0;white-space:nowrap}
.p2-desc{font-size:14px;color:var(--muted);font-family:var(--font-body);line-height:160%;margin:0;max-width:520px}
.p2-ctas{display:flex;align-items:center;gap:18px;margin-top:6px}
.p2-docs{font-size:13px;color:var(--muted);text-decoration:underline;text-underline-offset:3px;font-family:var(--font-body);transition:color .15s ease}
.p2-docs:hover{color:var(--text)}</style><g>
<path d="M77.6206 55.4722C92.8353 55.4722 105.169 43.1382 105.169 27.9236C105.169 12.7089 92.8353 0.375 77.6206 0.375C62.406 0.375 50.072 12.7089 50.072 27.9236C50.072 43.1382 62.406 55.4722 77.6206 55.4722Z" stroke="#111" stroke-width="0.75" stroke-miterlimit="10"/>
<path class="dm" d="M110.51 70.972C125.724 70.972 138.058 58.6381 138.058 43.4234C138.058 28.2088 125.724 15.8748 110.51 15.8748C95.295 15.8748 82.961 28.2088 82.961 43.4234C82.961 58.6381 95.295 70.972 110.51 70.972Z" stroke="#111" stroke-miterlimit="10" stroke-dasharray="2 2"/>
<path d="M122.826 105.17C138.041 105.17 150.374 92.8358 150.374 77.6211C150.374 62.4065 138.041 50.0726 122.826 50.0726C107.611 50.0726 95.2773 62.4065 95.2773 77.6211C95.2773 92.8358 107.611 105.17 122.826 105.17Z" stroke="#111" stroke-width="0.75" stroke-miterlimit="10"/>
<path class="dm" d="M107.326 138.058C122.541 138.058 134.875 125.725 134.875 110.51C134.875 95.2952 122.541 82.9613 107.326 82.9613C92.1115 82.9613 79.7776 95.2952 79.7776 110.51C79.7776 125.725 92.1115 138.058 107.326 138.058Z" stroke="#111" stroke-miterlimit="10" stroke-dasharray="2 2"/>
<path d="M73.1283 150.375C88.343 150.375 100.677 138.041 100.677 122.826C100.677 107.612 88.343 95.2778 73.1283 95.2778C57.9137 95.2778 45.5797 107.612 45.5797 122.826C45.5797 138.041 57.9137 150.375 73.1283 150.375Z" stroke="#111" stroke-width="0.75" stroke-miterlimit="10"/>
<path class="dm" d="M40.2398 134.875C55.4545 134.875 67.7884 122.541 67.7884 107.327C67.7884 92.1119 55.4545 79.778 40.2398 79.778C25.0251 79.778 12.6912 92.1119 12.6912 107.327C12.6912 122.541 25.0251 134.875 40.2398 134.875Z" stroke="#111" stroke-miterlimit="10" stroke-dasharray="2 2"/>
<path d="M27.9236 100.677C43.1382 100.677 55.4722 88.3435 55.4722 73.1289C55.4722 57.9142 43.1382 45.5803 27.9236 45.5803C12.7089 45.5803 0.375 57.9142 0.375 73.1289C0.375 88.3435 12.7089 100.677 27.9236 100.677Z" stroke="#111" stroke-width="0.75" stroke-miterlimit="10"/>
<path class="dm" d="M43.4233 67.7887C58.6379 67.7887 70.9719 55.4548 70.9719 40.2401C70.9719 25.0255 58.6379 12.6915 43.4233 12.6915C28.2086 12.6915 15.8747 25.0255 15.8747 40.2401C15.8747 55.4548 28.2086 67.7887 43.4233 67.7887Z" stroke="#111" stroke-miterlimit="10" stroke-dasharray="2 2"/>
</g></svg>