<svg class="p2-diamond" height="186" viewBox="0 0 161 160.75" fill="none" xmlns="http://www.w3.org/2000/svg"><style>.p2-glyph{color:var(--text);flex-shrink:0;display:flex;align-items:center;justify-content:center;margin-bottom:4px}.p2-glyph svg{display:block;width:auto;overflow:visible;transform-box:fill-box;transform-origin:center center}@keyframes p2-spin{to{transform:rotate(360deg)}}@keyframes p2-dash{to{stroke-dashoffset:-8}}.p2-spin{animation:p2-spin 60s linear infinite}.p2-spin-rev{animation:p2-spin 72s linear infinite reverse}.p2-march .dm{animation:p2-dash 1.6s linear infinite}.p2-mesh .dm{animation:p2-dash 1.6s linear infinite}@keyframes p2-node-fill{0%,10%{fill:#111}16%,100%{fill:#fff}}.p2-mesh .p2-node{animation:p2-node-fill 4.5s linear infinite}@keyframes p2-blink{0%,30%{fill:#111}48%,100%{fill:#fff}}.p2-mesh .p2-center{animation:p2-blink 1.5s linear infinite}.p2-diamond .dm{animation:p2-dash 1.6s linear infinite}.p2-discs .dm{animation:p2-dash 1.6s linear infinite}@keyframes p2-disc-bob{0%,100%{transform:translateY(0)}50%{transform:translateY(-3px)}}.p2-discs .p2-disc{animation:p2-disc-bob 3.6s ease-in-out infinite}.p2-spin-rev .dm{animation:p2-dash 1.6s linear infinite}@keyframes p2-ray{0%,100%{opacity:.22}50%{opacity:1}}.p2-burst g.p2-spin{transform-box:fill-box;transform-origin:center center}.p2-burst g.p2-spin path{animation:p2-ray 2.8s ease-in-out infinite}@keyframes p2-ring-glow{0%,100%{opacity:.4}50%{opacity:1}}@keyframes p2-flow{to{stroke-dashoffset:-1}}@keyframes p2-flow-r{to{stroke-dashoffset:1}}.p2-glyph svg.p2-march{overflow:hidden}@keyframes p2-log-step{0%,58%{transform:translateY(0)}88%,100%{transform:translateY(32px)}}@keyframes p2-log-out{0%,58%{opacity:1}82%,100%{opacity:0}}@keyframes p2-log-in{0%,64%{opacity:0}88%,100%{opacity:1}}.p2-log-stack{animation:p2-log-step 2.2s ease-in-out infinite;animation-delay:-1.25s}.p2-log-out{animation:p2-log-out 2.2s linear infinite;animation-delay:-1.25s}.p2-log-in{opacity:0;animation:p2-log-in 2.2s linear infinite;animation-delay:-1.25s}
.p2-title{font-size:44px;font-weight:400;font-family:var(--font-heading);color:var(--text);letter-spacing:-1.2px;line-height:110%;margin:0;white-space:nowrap}
.p2-desc{font-size:14px;color:var(--muted);font-family:var(--font-body);line-height:160%;margin:0;max-width:520px}
.p2-ctas{display:flex;align-items:center;gap:18px;margin-top:6px}
.p2-docs{font-size:13px;color:var(--muted);text-decoration:underline;text-underline-offset:3px;font-family:var(--font-body);transition:color .15s ease}
.p2-docs:hover{color:var(--text)}</style><defs><linearGradient id="p2dg-ua" gradientUnits="userSpaceOnUse" x1="-161" y1="0" x2="0" y2="0"><stop offset="0" stop-color="#c8cdd3"/><stop offset="0.35" stop-color="#16181a"/><stop offset="0.65" stop-color="#16181a"/><stop offset="1" stop-color="#c8cdd3"/><animateTransform attributeName="gradientTransform" type="translate" from="0 0" to="322 0" dur="3.4s" repeatCount="indefinite"/></linearGradient></defs><g>
<path class="dm" d="M80.5 105.298C124.683 105.298 160.5 93.943 160.5 79.9364C160.5 65.9298 124.683 54.5751 80.5 54.5751C36.3172 54.5751 0.5 65.9298 0.5 79.9364C0.5 93.943 36.3172 105.298 80.5 105.298Z" stroke="#111" stroke-miterlimit="10" stroke-dasharray="2 2"/>
<path class="p2-ring" d="M80.3588 119.067C116.799 119.067 146.339 101.597 146.339 80.046C146.339 58.4953 116.799 41.0251 80.3588 41.0251C43.919 41.0251 14.3788 58.4953 14.3788 80.046C14.3788 101.597 43.919 119.067 80.3588 119.067Z" stroke="url(#p2dg-ua)" stroke-width="0.75" stroke-miterlimit="10"/>
<path class="p2-ring" d="M80.202 132.836C108.89 132.836 132.146 109.25 132.146 80.1556C132.146 51.0609 108.89 27.475 80.202 27.475C51.5139 27.475 28.2576 51.0609 28.2576 80.1556C28.2576 109.25 51.5139 132.836 80.202 132.836Z" stroke="url(#p2dg-ua)" stroke-width="0.75" stroke-miterlimit="10"/>
<path class="p2-ring" d="M80.0454 146.606C100.99 146.606 117.97 116.904 117.97 80.2653C117.97 43.6266 100.99 13.925 80.0454 13.925C59.1003 13.925 42.121 43.6266 42.121 80.2653C42.121 116.904 59.1003 146.606 80.0454 146.606Z" stroke="url(#p2dg-ua)" stroke-width="0.75" stroke-miterlimit="10"/>
<path class="p2-ring" d="M79.8888 160.375C93.0909 160.375 103.793 124.558 103.793 80.375C103.793 36.1922 93.0909 0.375 79.8888 0.375C66.6868 0.375 55.9844 36.1922 55.9844 80.375C55.9844 124.558 66.6868 160.375 79.8888 160.375Z" stroke="url(#p2dg-ua)" stroke-width="0.75" stroke-miterlimit="10"/>
</g></svg>